<svg width="20" height="20" viewBox="0 0 20 20" fill="none" xmlns="http://www.w3.org/2000/svg">
<path d="M9.65234 0.0664062C9.55859 0.101562 9.40625 0.203125 9.31641 0.292969C9.00391 0.601562 9.02344 0.324219 9.02344 4.92969V9.02344H4.92969C0.324219 9.02344 0.601563 9.00781 0.292969 9.31641C-0.0898438 9.69922 -0.0898438 10.3008 0.292969 10.6836C0.601563 10.9922 0.324219 10.9766 4.92969 10.9766H9.02344V15.0703C9.02344 19.6758 9.00781 19.3984 9.31641 19.707C9.69922 20.0898 10.3008 20.0898 10.6836 19.707C10.9922 19.3984 10.9766 19.6758 10.9766 15.0703V10.9766H15.0703C19.6758 10.9766 19.3984 10.9922 19.707 10.6836C20.0898 10.3008 20.0898 9.69922 19.707 9.31641C19.3984 9.00781 19.6758 9.02344 15.0703 9.02344H10.9766V4.92969C10.9766 0.324219 10.9922 0.601562 10.6836 0.292969C10.4141 0.0195312 10.0234 -0.0625 9.65234 0.0664062Z" fill="black"/>
</svg>
